<svg xmlns="http://www.w3.org/2000/svg" viewBox="0 0 64 64" fill="none">
  <path d="M34 4c3 12-7 14-2 25 3-7 12-10 12-21 9 9 16 21 12 34-4 13-15 18-25 18C17 60 8 51 8 39c0-10 6-17 12-23-1 9 5 12 8 17 2-11 9-15 6-29Z" fill="#ff6a1a"/>
  <path d="M33 28c5 7 12 11 9 21-2 6-7 9-12 9-7 0-12-5-12-12 0-6 4-10 8-14 0 5 3 8 6 10 0-6 4-8 1-14Z" fill="#ffd166"/>
  <path d="M34 4c3 12-7 14-2 25 3-7 12-10 12-21 9 9 16 21 12 34-4 13-15 18-25 18C17 60 8 51 8 39c0-10 6-17 12-23-1 9 5 12 8 17 2-11 9-15 6-29Z" stroke="#ffb15e" stroke-width="2"/>
</svg>
