<svg xmlns="http://www.w3.org/2000/svg" viewBox="0 0 64 64">
  <circle cx="32" cy="32" r="12" fill="#ffe08a"/>
  <g stroke="#ffd166" stroke-width="4" stroke-linecap="round">
    <line x1="32" y1="4" x2="32" y2="15"/>
    <line x1="32" y1="49" x2="32" y2="60"/>
    <line x1="4" y1="32" x2="15" y2="32"/>
    <line x1="49" y1="32" x2="60" y2="32"/>
    <line x1="12" y1="12" x2="20" y2="20"/>
    <line x1="44" y1="44" x2="52" y2="52"/>
    <line x1="12" y1="52" x2="20" y2="44"/>
    <line x1="44" y1="20" x2="52" y2="12"/>
  </g>
  <path d="M32 40C32 40 22 34 22 27C22 23 25 20 29 20C31 20 33 22 34 24C35 22 37 20 40 20C44 20 47 23 47 27C47 34 32 40 32 40Z" fill="#fff7d6"/>
</svg>